<?xml version="1.0" encoding="UTF-8"?>
<svg width="156px" height="29px" viewBox="0 0 156 29" version="1.1" xmlns="http://www.w3.org/2000/svg" xmlns:xlink="http://www.w3.org/1999/xlink">
    <!-- Generator: Sketch 53.2 (72643) - https://sketchapp.com -->
    <title>Group 7</title>
    <desc>Created with Sketch.</desc>
    <g id="Desktop" stroke="none" stroke-width="1" fill="none" fill-rule="evenodd">
        <g id="Home" transform="translate(-271.000000, -53.000000)" fill="#7159C1">
            <g id="Group-8" transform="translate(270.000000, 50.000000)">
                <g id="Group-7" transform="translate(0.000000, 2.000000)">
                    <g id="Header">
                        <g id="Group-3">
                            <text id="dropbox---FontAwesome" font-family="FontAwesome" font-size="32" font-weight="normal">
                                <tspan x="0" y="27"></tspan>
                            </text>
                            <path d="M50.1666667,11.3125 L50.1666667,15.4375 L53.8020833,15.4375 C54.5243092,15.4375 55.0659704,15.3541675 55.4270833,15.1875 C56.0659754,14.8958319 56.3854167,14.3194488 56.3854167,13.4583333 C56.3854167,12.5277731 56.076392,11.9027794 55.4583333,11.5833333 C55.1111094,11.4027769 54.5902812,11.3125 53.8958333,11.3125 L50.1666667,11.3125 Z M54.5625,8.64583333 C55.6388943,8.66666677 56.467011,8.7986099 57.046875,9.04166667 C57.626739,9.28472344 58.1180535,9.64235875 58.5208333,10.1145833 C58.8541683,10.5034742 59.1180546,10.9340254 59.3125,11.40625 C59.5069454,11.8784746 59.6041667,12.4166636 59.6041667,13.0208333 C59.6041667,13.7500036 59.4201407,14.4670104 59.0520833,15.171875 C58.6840259,15.8767396 58.0763931,16.3749985 57.2291667,16.6666667 C57.9375035,16.9513903 58.4392346,17.3559002 58.734375,17.8802083 C59.0295154,18.4045165 59.1770833,19.2048557 59.1770833,20.28125 L59.1770833,21.3125 C59.1770833,22.0138924 59.2048608,22.4895821 59.2604167,22.7395833 C59.3437504,23.1354186 59.5381929,23.4270824 59.84375,23.6145833 L59.84375,24 L56.3125,24 C56.2152773,23.6597205 56.1458335,23.3854177 56.1041667,23.1770833 C56.0208329,22.7465256 55.9756945,22.3055578 55.96875,21.8541667 L55.9479167,20.4270833 C55.9340277,19.4479118 55.7552101,18.7951405 55.4114583,18.46875 C55.0677066,18.1423595 54.4236158,17.9791667 53.4791667,17.9791667 L50.1666667,17.9791667 L50.1666667,24 L47.03125,24 L47.03125,8.64583333 L54.5625,8.64583333 Z M67.21875,21.90625 C68.0868099,21.90625 68.7534699,21.5972253 69.21875,20.9791667 C69.6840301,20.361108 69.9166667,19.4826446 69.9166667,18.34375 C69.9166667,17.2048554 69.6840301,16.3281281 69.21875,15.7135417 C68.7534699,15.0989553 68.0868099,14.7916667 67.21875,14.7916667 C66.3506901,14.7916667 65.682294,15.0989553 65.2135417,15.7135417 C64.7447893,16.3281281 64.5104167,17.2048554 64.5104167,18.34375 C64.5104167,19.4826446 64.7447893,20.361108 65.2135417,20.9791667 C65.682294,21.5972253 66.3506901,21.90625 67.21875,21.90625 Z M73.03125,18.34375 C73.03125,20.010425 72.5520881,21.435758 71.59375,22.6197917 C70.6354119,23.8038254 69.1805653,24.3958333 67.2291667,24.3958333 C65.277768,24.3958333 63.8229215,23.8038254 62.8645833,22.6197917 C61.9062452,21.435758 61.4270833,20.010425 61.4270833,18.34375 C61.4270833,16.7048529 61.9062452,15.2847282 62.8645833,14.0833333 C63.8229215,12.8819384 65.277768,12.28125 67.2291667,12.28125 C69.1805653,12.28125 70.6354119,12.8819384 71.59375,14.0833333 C72.5520881,15.2847282 73.03125,16.7048529 73.03125,18.34375 Z M81.9375,16.71875 C81.8819442,16.2951368 81.7395845,15.9131961 81.5104167,15.5729167 C81.1770817,15.114581 80.6597257,14.8854167 79.9583333,14.8854167 C78.9583283,14.8854167 78.2743074,15.3819395 77.90625,16.375 C77.7118046,16.9027804 77.6145833,17.6041623 77.6145833,18.4791667 C77.6145833,19.3125042 77.7118046,19.9826364 77.90625,20.4895833 C78.2604184,21.4340325 78.9270784,21.90625 79.90625,21.90625 C80.6006979,21.90625 81.0937485,21.7187519 81.3854167,21.34375 C81.6770848,20.9687481 81.8541664,20.4826419 81.9166667,19.8854167 L84.9479167,19.8854167 C84.8784719,20.788199 84.5520862,21.6423571 83.96875,22.4479167 C83.0381898,23.7465343 81.6597314,24.3958333 79.8333333,24.3958333 C78.0069353,24.3958333 76.6631987,23.8541721 75.8020833,22.7708333 C74.9409679,21.6874946 74.5104167,20.2812586 74.5104167,18.5520833 C74.5104167,16.6006847 74.9861064,15.0833387 75.9375,14 C76.8888936,12.9166613 78.2013805,12.375 79.875,12.375 C81.2986182,12.375 82.4635371,12.6944413 83.3697917,13.3333333 C84.2760462,13.9722254 84.8124992,15.1006864 84.9791667,16.71875 L81.9375,16.71875 Z M86.9895833,8.69791667 L89.90625,8.69791667 L89.90625,16.96875 L93.6041667,12.6979167 L97.28125,12.6979167 L93.3125,17.0416667 L97.4375,24 L93.8541667,24 L91.1354167,19.1458333 L89.90625,20.4270833 L89.90625,24 L86.9895833,24 L86.9895833,8.69791667 Z M103.364583,14.7916667 C102.67708,14.7916667 102.144099,15.0069423 101.765625,15.4375 C101.387151,15.8680577 101.149306,16.4513852 101.052083,17.1875 L105.666667,17.1875 C105.618055,16.4027739 105.38021,15.8072937 104.953125,15.4010417 C104.52604,14.9947896 103.996531,14.7916667 103.364583,14.7916667 Z M103.364583,12.34375 C104.309032,12.34375 105.159718,12.5208316 105.916667,12.875 C106.673615,13.2291684 107.298609,13.7881906 107.791667,14.5520833 C108.236113,15.2256978 108.524305,16.00694 108.65625,16.8958333 C108.732639,17.4166693 108.763889,18.1666618 108.75,19.1458333 L100.979167,19.1458333 C101.020834,20.2847279 101.378469,21.083331 102.052083,21.5416667 C102.461808,21.8263903 102.954858,21.96875 103.53125,21.96875 C104.142364,21.96875 104.638887,21.7951406 105.020833,21.4479167 C105.229168,21.2604157 105.413194,21.0000017 105.572917,20.6666667 L108.604167,20.6666667 C108.527777,21.3402811 108.177086,22.0243021 107.552083,22.71875 C106.579856,23.8229222 105.218759,24.375 103.46875,24.375 C102.024298,24.375 100.750006,23.9097269 99.6458333,22.9791667 C98.5416611,22.0486065 97.9895833,20.5347327 97.9895833,18.4375 C97.9895833,16.4722124 98.4878422,14.965283 99.484375,13.9166667 C100.480908,12.8680503 101.774298,12.34375 103.364583,12.34375 Z M109.583333,14.8645833 L109.583333,12.75 L111.166667,12.75 L111.166667,9.58333333 L114.104167,9.58333333 L114.104167,12.75 L115.947917,12.75 L115.947917,14.8645833 L114.104167,14.8645833 L114.104167,20.8645833 C114.104167,21.3298634 114.163194,21.6197911 114.28125,21.734375 C114.399306,21.8489589 114.760414,21.90625 115.364583,21.90625 C115.454862,21.90625 115.550347,21.9045139 115.651042,21.9010417 C115.751737,21.8975694 115.850694,21.8923611 115.947917,21.8854167 L115.947917,24.1041667 L114.541667,24.15625 C113.138882,24.2048614 112.180558,23.9618082 111.666667,23.4270833 C111.333332,23.0868039 111.166667,22.5625035 111.166667,21.8541667 L111.166667,14.8645833 L109.583333,14.8645833 Z M121.208333,11.3125 L121.208333,14.6979167 L124.979167,14.6979167 C125.652781,14.6979167 126.199651,14.5711818 126.619792,14.3177083 C127.039933,14.0642348 127.25,13.6145866 127.25,12.96875 C127.25,12.2534686 126.972225,11.7812511 126.416667,11.5520833 C125.937498,11.3923603 125.326393,11.3125 124.583333,11.3125 L121.208333,11.3125 Z M121.208333,17.2395833 L121.208333,21.3333333 L124.979167,21.3333333 C125.652781,21.3333333 126.177081,21.2430565 126.552083,21.0625 C127.232642,20.729165 127.572917,20.0902825 127.572917,19.1458333 C127.572917,18.3472182 127.243059,17.7986126 126.583333,17.5 C126.215276,17.3333325 125.69792,17.2465278 125.03125,17.2395833 L121.208333,17.2395833 Z M125.604167,8.64583333 C127.486121,8.67361125 128.819441,9.21874469 129.604167,10.28125 C130.076391,10.934031 130.3125,11.7152732 130.3125,12.625 C130.3125,13.5625047 130.076391,14.3159694 129.604167,14.8854167 C129.340276,15.2048627 128.951391,15.4965265 128.4375,15.7604167 C129.222226,16.0451403 129.814234,16.4965247 130.213542,17.1145833 C130.612849,17.732642 130.8125,18.4826345 130.8125,19.3645833 C130.8125,20.2743101 130.583336,21.0902742 130.125,21.8125 C129.833332,22.2916691 129.468752,22.6944428 129.03125,23.0208333 C128.538192,23.3958352 127.956601,23.6527771 127.286458,23.7916667 C126.616316,23.9305563 125.888893,24 125.104167,24 L118.145833,24 L118.145833,8.64583333 L125.604167,8.64583333 Z M138.354167,21.90625 C139.222227,21.90625 139.888887,21.5972253 140.354167,20.9791667 C140.819447,20.361108 141.052083,19.4826446 141.052083,18.34375 C141.052083,17.2048554 140.819447,16.3281281 140.354167,15.7135417 C139.888887,15.0989553 139.222227,14.7916667 138.354167,14.7916667 C137.486107,14.7916667 136.817711,15.0989553 136.348958,15.7135417 C135.880206,16.3281281 135.645833,17.2048554 135.645833,18.34375 C135.645833,19.4826446 135.880206,20.361108 136.348958,20.9791667 C136.817711,21.5972253 137.486107,21.90625 138.354167,21.90625 Z M144.166667,18.34375 C144.166667,20.010425 143.687505,21.435758 142.729167,22.6197917 C141.770829,23.8038254 140.315982,24.3958333 138.364583,24.3958333 C136.413185,24.3958333 134.958338,23.8038254 134,22.6197917 C133.041662,21.435758 132.5625,20.010425 132.5625,18.34375 C132.5625,16.7048529 133.041662,15.2847282 134,14.0833333 C134.958338,12.8819384 136.413185,12.28125 138.364583,12.28125 C140.315982,12.28125 141.770829,12.8819384 142.729167,14.0833333 C143.687505,15.2847282 144.166667,16.7048529 144.166667,18.34375 Z M145.177083,24 L149.052083,18.25 L145.34375,12.6666667 L148.979167,12.6666667 L150.875,15.9583333 L152.729167,12.6666667 L156.260417,12.6666667 L152.53125,18.1979167 L156.40625,24 L152.708333,24 L150.75,20.59375 L148.78125,24 L145.177083,24 Z" id="RocketBox" fill-rule="nonzero"></path>
                        </g>
                    </g>
                </g>
            </g>
        </g>
    </g>
</svg>